<svg xmlns="http://www.w3.org/2000/svg"  viewBox="0 0 48 48" width="480px" height="480px"><path fill="#8bc34a" d="M11,7h10l-1,4h3l-2,5h4l2-5h3l1-4h10l-6,26H3L11,7z"/><path fill="#263238" d="M40.754,6H40h-9h-0.74l-1.182,5H27.5h-1.299l-0.509,1.854L20.785,6H20h-7.266H11h-0.359h-0.01L2,33	l8.908,9h0.229h2.004h7.982l1.523-6.172L23.698,37h2.62l4.104,5H30.6h1.784h8.538L46,17L40.754,6z M31.333,8h8.133l-1.808,8h-3.754	l1.086-4.402c0.029-0.146-0.009-0.299-0.104-0.415C34.792,11.067,34.649,11,34.5,11h-3.908L31.333,8z M27.5,11.916V12h6.39l-1.012,4	h-6.581l1.087-3.66L27.5,11.916z M18.887,11h-7.715l0.938-3h7.688L18.887,11z M12.334,33.042H4.369L4.328,33H4.297l3.125-10h1.915	L7.52,29.362c-0.043,0.151-0.014,0.313,0.081,0.438C7.695,29.927,7.843,30,8,30h5.217L12.334,33.042z M9.52,26h4.858l-0.871,3H8.663	L9.52,26z M25.094,33l2.628-11h-2.094h-1.121l-1.352,5H17.4l1.354-5h-3.215l-0.871,3H9.806l0.675-2.362	c0.043-0.151,0.014-0.313-0.081-0.438C10.305,22.073,10.157,22,10,22H7.734l3.125-10h7.725H19h2.292l-1.354,5H25h1h11.432l-3.615,16	H25.094z"/><path fill="#8d6e63" d="M18.841,40l-6.507-7H4.328l6.854,7H18.841z M38.801,40l-4.985-7h-8.722l5.67,7H38.801z M23.036,33H23	l1.117-4.676L23.084,27h-5.6l6.587,8.001h0.607L23.036,33z"/></svg>